{
	"asset": {
		"version": "2.0",
		"generator": "Maxon Cinema 4D 2023.2.1 (#200000219)"
	},
	"scenes": [
		{
			"nodes": [0]
		}
	],
	"nodes": [
		{
			"name": "병풍1.1",
			"translation": [2.633047580718994, 2.804788827896118, -2.07425594329834],
			"rotation": [0.0, 0.0, 0.0, -1.0],
			"scale": [1.1073999404907227, 1.1073999404907227, 1.1073999404907227],
			"children": [1, 2]
		},
		{
			"name": "병풍1.1-OctGlossy10",
			"mesh": 0
		},
		{
			"name": "병풍1.1-OctGlossy17",
			"mesh": 1
		}
	],
	"meshes": [
		{
			"name": "병풍1.1-OctGlossy10",
			"primitives": [
				{
					"material": 0,
					"attributes": {
						"NORMAL": 2,
						"POSITION": 1,
						"TEXCOORD_0": 3
					},
					"indices": 0
				}
			]
		},
		{
			"name": "병풍1.1-OctGlossy17",
			"primitives": [
				{
					"material": 1,
					"attributes": {
						"NORMAL": 6,
						"POSITION": 5,
						"TEXCOORD_0": 7
					},
					"indices": 4
				}
			]
		}
	],
	"accessors": [
		{
			"bufferView": 0,
			"min": [0],
			"type": "SCALAR",
			"componentType": 5123,
			"count": 180,
			"byteOffset": 0,
			"max": [63]
		},
		{
			"bufferView": 1,
			"min": [-1.6791669130325318, -0.7884930372238159, -0.2985767424106598],
			"type": "VEC3",
			"componentType": 5126,
			"count": 64,
			"byteOffset": 0,
			"max": [1.6791669130325318, 0.7884930372238159, 0.05000000074505806]
		},
		{
			"bufferView": 1,
			"min": [-1.0, -1.0, -0.9951678514480591],
			"type": "VEC3",
			"componentType": 5126,
			"count": 64,
			"byteOffset": 12,
			"max": [1.0, 1.0, 1.0]
		},
		{
			"bufferView": 1,
			"min": [0.0, 0.0],
			"type": "VEC2",
			"componentType": 5126,
			"count": 64,
			"byteOffset": 24,
			"max": [1.0, 1.0]
		},
		{
			"bufferView": 2,
			"min": [0],
			"type": "SCALAR",
			"componentType": 5123,
			"count": 24,
			"byteOffset": 0,
			"max": [15]
		},
		{
			"bufferView": 3,
			"min": [-1.6399630308151246, -0.7504929900169373, -0.18696962296962739],
			"type": "VEC3",
			"componentType": 5126,
			"count": 16,
			"byteOffset": 0,
			"max": [1.6399630308151246, 0.7504929900169373, 0.038392867892980579]
		},
		{
			"bufferView": 3,
			"min": [-0.28387975692749026, 0.0, 0.9588598608970642],
			"type": "VEC3",
			"componentType": 5126,
			"count": 16,
			"byteOffset": 12,
			"max": [0.28387975692749026, 0.0, 0.9588598608970642]
		},
		{
			"bufferView": 3,
			"min": [0.01167359109967947, 0.024096596986055375],
			"type": "VEC2",
			"componentType": 5126,
			"count": 16,
			"byteOffset": 24,
			"max": [0.988326370716095, 0.9759033918380737]
		}
	],
	"bufferViews": [
		{
			"buffer": 0,
			"byteOffset": 0,
			"byteLength": 360,
			"target": 34963
		},
		{
			"buffer": 0,
			"byteOffset": 360,
			"byteLength": 2048,
			"target": 34962,
			"byteStride": 32
		},
		{
			"buffer": 1,
			"byteOffset": 0,
			"byteLength": 48,
			"target": 34963
		},
		{
			"buffer": 1,
			"byteOffset": 48,
			"byteLength": 512,
			"target": 34962,
			"byteStride": 32
		}
	],
	"buffers": [
		{
			"uri": "data:application/octet-stream;base64,",
			"byteLength": 2408
		},
		{
			"uri": "data:application/octet-stream;base64,",
			"byteLength": 560
		}
	],
	"materials": [
		{
			"pbrMetallicRoughness": {
				"baseColorFactor": [1.0, 1.0, 1.0, 1.0],
				"metallicFactor": 1.0,
				"roughnessFactor": 1.0
			},
			"emissiveFactor": [0.0, 0.0, 0.0],
			"name": "",
			"alphaMode": "OPAQUE",
			"doubleSided": true
		},
		{
			"pbrMetallicRoughness": {
				"baseColorFactor": [1.0, 1.0, 1.0, 1.0],
				"metallicFactor": 1.0,
				"roughnessFactor": 1.0
			},
			"emissiveFactor": [0.0, 0.0, 0.0],
			"name": "",
			"alphaMode": "OPAQUE",
			"doubleSided": true
		}
	]
}
