<svg width="42" height="25" viewBox="0 0 42 25" fill="none" xmlns="http://www.w3.org/2000/svg">
<g clip-path="url(#clip0_1554_5)">
<path d="M6.4458 3.55664H30.8245" stroke="#FFF4E3" stroke-width="1.4" stroke-linecap="round" stroke-linejoin="round"/>
<path d="M9.90088 21.2695H35.5543" stroke="#FFF4E3" stroke-width="1.4" stroke-linecap="round" stroke-linejoin="round"/>
<path d="M6.44579 18.8918V24.4968H0.506836V2.14844H6.44579V8.06968C6.44579 8.19184 6.44579 10.2973 6.44579 10.3907" stroke="#FFF4E3" stroke-width="1.4" stroke-linecap="round" stroke-linejoin="round"/>
<path d="M35.5542 6.33786C35.5542 6.56781 35.5542 2.85985 35.5542 2.14844H41.4932V24.4968H35.5542C35.5542 23.5986 35.5542 22.6931 35.5542 21.7949C35.5542 20.7242 35.5542 19.6535 35.5542 18.5828C35.5542 18.4606 35.5542 14.9251 35.5542 14.8245" stroke="#FFF4E3" stroke-width="1.4" stroke-linecap="round" stroke-linejoin="round"/>
<path d="M5.34511 0.503906H1.60791V2.14949H5.34511V0.503906Z" stroke="#FFF4E3" stroke-width="1.4" stroke-linecap="round" stroke-linejoin="round"/>
<path d="M40.392 0.503906H36.6548V2.14949H40.392V0.503906Z" stroke="#FFF4E3" stroke-width="1.4" stroke-linecap="round" stroke-linejoin="round"/>
</g>
<defs>
<clipPath id="clip0_1554_5">
<rect width="42" height="25" fill="white"/>
</clipPath>
</defs>
</svg>
